<?xml version="1.0" encoding="utf-8"?>
<!-- Svg Vector Icons : http://www.onlinewebfonts.com/icon -->
<!DOCTYPE svg PUBLIC "-//W3C//DTD SVG 1.1//EN" "http://www.w3.org/Graphics/SVG/1.1/DTD/svg11.dtd">
<svg version="1.1" xmlns="http://www.w3.org/2000/svg" xmlns:xlink="http://www.w3.org/1999/xlink" x="0px" y="0px" viewBox="0 0 1000 1000" enable-background="new 0 0 1000 1000" xml:space="preserve">
<metadata> Svg Vector Icons : http://www.onlinewebfonts.com/icon </metadata>
<g><g transform="translate(0.000000,511.000000) scale(0.100000,-0.100000)"><path d="M7878.3,4988.9c-52.2-15.9-127-52.2-170.2-77.1c-40.8-27.2-369.8-344.9-732.8-705.6l-658-660.2l136.1-136.1l133.9-136.1l682.9,678.4c680.7,680.7,739.6,728.3,857.6,696.5c27.2-6.8,358.5-322.2,737.4-701.1c723.8-726,726-730.6,660.3-862.2c-13.6-27.2-324.5-351.7-692-719.2l-667.1-669.3l136.1-136.1l136.1-136.1l671.6,669.3c769.1,769.1,789.6,794.1,789.6,1077.7c2.3,299.5-6.8,313.1-764.6,1070.9c-723.8,723.8-764.6,753.3-1023.3,769.1C8032.5,5016.2,7932.7,5007.1,7878.3,4988.9z"/><path d="M3308.8,535.2C1380.3-1397.9,561.2-2232.8,531.7-2296.3c-22.7-49.9-133.9-546.8-245-1107.2c-190.6-943.9-201.9-1021-177-1109.5c36.3-122.5,147.5-233.7,270-270c86.2-25,167.9-13.6,1098.1,172.4c673.8,131.6,1041.4,215.5,1118.5,251.8c93,43.1,626.2,565,2847.4,2788.4l2734,2734l-1055,1055c-580.8,580.8-1059.6,1055-1066.4,1055C6049.6,3273.7,4813.1,2041.7,3308.8,535.2z M6850.5,1946.4l782.8-782.7l-2591-2591L2448.9-4020.7l-980.1-195.1c-540-108.9-984.7-197.4-987-195.1c-2.3,2.3,86.2,447,195.1,987l195.1,980.1L3458.5,142.7c1422.6,1422.6,2591,2586.5,2597.8,2586.5C6063.2,2729.2,6419.4,2377.5,6850.5,1946.4z"/></g></g>
</svg>